<?xml version="1.0" encoding="UTF-8"?>
<svg version="1.1" xmlns="http://www.w3.org/2000/svg" width="32" height="32">
<path d="M0 0 C10.56 0 21.12 0 32 0 C32 10.56 32 21.12 32 32 C21.44 32 10.88 32 0 32 C0 21.44 0 10.88 0 0 Z " fill="#DCDCDA" transform="translate(0,0)"/>
<path d="M0 0 C0.33 0.99 0.66 1.98 1 3 C4.51190809 4.22969878 4.51190809 4.22969878 8 5 C7.67 3.35 7.34 1.7 7 0 C8.65 1.32 10.3 2.64 12 4 C11.67 4.33 11.34 4.66 11 5 C12.65 5.33 14.3 5.66 16 6 C15.34 6.66 14.68 7.32 14 8 C14 8.99 14 9.98 14 11 C13.07767578 11.25523438 13.07767578 11.25523438 12.13671875 11.515625 C7.09986362 12.96699487 7.09986362 12.96699487 2.9375 16 C1.78778306 18.08459203 1.78778306 18.08459203 2 21 C2.99 21.33 3.98 21.66 5 22 C5.185625 20.5459375 5.185625 20.5459375 5.375 19.0625 C5.58125 18.051875 5.7875 17.04125 6 16 C6.66 15.67 7.32 15.34 8 15 C7.67 17.31 7.34 19.62 7 22 C8.32 22 9.64 22 11 22 C11 20.02 11 18.04 11 16 C13 19 13 19 13 22 C13.99 22 14.98 22 16 22 C16.0825 21.278125 16.165 20.55625 16.25 19.8125 C17 17 17 17 19.0625 14.625 C21.54912894 11.25601886 21.32076549 9.08975994 21 5 C21.99 4.67 22.98 4.34 24 4 C24.13572155 6.39774745 24.23436868 8.78775245 24.3125 11.1875 C24.35439453 11.86103516 24.39628906 12.53457031 24.43945312 13.22851562 C24.53048363 16.96076625 24.10194282 18.85112798 21.98046875 21.94921875 C18.2773387 24.49724401 15.34725171 24.74531139 11 24.625 C9.95199219 24.65400391 9.95199219 24.65400391 8.8828125 24.68359375 C5.1821484 24.64868182 3.10660367 24.07158275 0.02734375 22.00390625 C-2.69427446 17.97129661 -2.64285341 15.05978771 -2.4375 10.3125 C-2.43169922 9.54099609 -2.42589844 8.76949219 -2.41992188 7.97460938 C-2.29593331 2.29593331 -2.29593331 2.29593331 0 0 Z " fill="#3F3E3E" transform="translate(5,5)"/>
<path d="M0 0 C4.22237739 0 7.0410989 0.6803663 11 2 C11.33 1.34 11.66 0.68 12 0 C13.125 1.75 13.125 1.75 14 4 C13.1875 5.9375 13.1875 5.9375 12 8 C11.87625 8.804375 11.7525 9.60875 11.625 10.4375 C10.82975671 13.69799748 9.11022183 15.42816715 7 18 C6.22166466 20.18214568 6.22166466 20.18214568 6 22 C5.01 22 4.02 22 3 22 C2.67 21.01 2.34 20.02 2 19 C1.67 19.99 1.34 20.98 1 22 C-0.32 22 -1.64 22 -3 22 C-3 20.02 -3 18.04 -3 16 C-3.66 17.98 -4.32 19.96 -5 22 C-6.32 21.67 -7.64 21.34 -9 21 C-8.67193724 18.04743516 -8.17679366 16.24751113 -6.4375 13.8125 C-3.07701099 11.31367484 -0.09481562 10.81896312 4 10 C3.34 9.21625 2.68 8.4325 2 7.625 C-0.42639827 4.44035227 0 3.89395379 0 0 Z " fill="#474646" transform="translate(15,5)"/>
<path d="M0 0 C7.59 0.33 15.18 0.66 23 1 C23 1.33 23 1.66 23 2 C21.57107422 2.03867188 21.57107422 2.03867188 20.11328125 2.078125 C18.85902344 2.13484375 17.60476562 2.1915625 16.3125 2.25 C15.07113281 2.29640625 13.82976563 2.3428125 12.55078125 2.390625 C8.39912604 3.10312028 6.71201832 3.76898381 4 7 C3.48595045 10.04498764 3.29742122 12.40934163 3.375 15.4375 C3.35566406 16.18837891 3.33632813 16.93925781 3.31640625 17.71289062 C3.35437884 22.03037385 3.59116296 23.53140985 6.5390625 26.91015625 C7.75722656 27.94462891 7.75722656 27.94462891 9 29 C9 29.66 9 30.32 9 31 C11.9389507 30.9131197 14.87481289 30.80626233 17.8125 30.6875 C18.64587891 30.66494141 19.47925781 30.64238281 20.33789062 30.61914062 C21.14033203 30.58369141 21.94277344 30.54824219 22.76953125 30.51171875 C23.50792236 30.48553467 24.24631348 30.45935059 25.00708008 30.43237305 C27.53674907 29.88354985 28.43718939 29.03789071 30 27 C30.7269226 23.89160979 30.7269226 23.89160979 31 21 C31.33 21 31.66 21 32 21 C32 24.63 32 28.26 32 32 C21.44 32 10.88 32 0 32 C0 21.44 0 10.88 0 0 Z " fill="#E1E2E0" transform="translate(0,0)"/>
<path d="M0 0 C0.13572155 2.39774745 0.23436868 4.78775245 0.3125 7.1875 C0.35439453 7.86103516 0.39628906 8.53457031 0.43945312 9.22851562 C0.5323803 13.03852988 0.10974903 14.84667415 -2.125 17.96875 C-5.53481202 20.37785632 -7.19256739 20.53886992 -11.3125 20.3125 C-12.91544922 20.24482422 -12.91544922 20.24482422 -14.55078125 20.17578125 C-15.35902344 20.11777344 -16.16726562 20.05976563 -17 20 C-17 19.67 -17 19.34 -17 19 C-15.35 19 -13.7 19 -12 19 C-12.33 16.69 -12.66 14.38 -13 12 C-11 15 -11 15 -11 18 C-10.01 18 -9.02 18 -8 18 C-7.9175 17.278125 -7.835 16.55625 -7.75 15.8125 C-7 13 -7 13 -4.9375 10.625 C-2.45087106 7.25601886 -2.67923451 5.08975994 -3 1 C-1 0 -1 0 0 0 Z " fill="#484646" transform="translate(29,9)"/>
<path d="M0 0 C1.65 0.33 3.3 0.66 5 1 C4.59415005 3.84094967 4.13702954 4.87153481 2 6.875 C-0.49147225 9.52218926 -0.67660307 11.4426338 -1 15 C-2.32 15 -3.64 15 -5 15 C-5 13.02 -5 11.04 -5 9 C-5.66 10.98 -6.32 12.96 -7 15 C-8.32 14.67 -9.64 14.34 -11 14 C-10.67193724 11.04743516 -10.17679366 9.24751113 -8.4375 6.8125 C-5.07701099 4.31367484 -2.09481562 3.81896312 2 3 C1.34 2.01 0.68 1.02 0 0 Z " fill="#C2C1C1" transform="translate(17,12)"/>
<path d="M0 0 C5.94 0 11.88 0 18 0 C18.66 1.98 19.32 3.96 20 6 C19.278125 5.484375 18.55625 4.96875 17.8125 4.4375 C14.5804634 2.78557018 13.38391693 2.93648325 10 4 C10 3.34 10 2.68 10 2 C8.02 2.99 8.02 2.99 6 4 C6 4.99 6 5.98 6 7 C0.25 7.125 0.25 7.125 -2 6 C-1.34 4.02 -0.68 2.04 0 0 Z " fill="#878686" transform="translate(7,3)"/>
<path d="M0 0 C0.66 0 1.32 0 2 0 C2.1081866 2.58445773 2.18737237 5.16437352 2.25 7.75 C2.30027344 8.84441406 2.30027344 8.84441406 2.3515625 9.9609375 C2.41196061 13.2828333 2.23159369 15.59722837 0.5625 18.5 C-3.31302969 20.76860274 -6.8502035 20.42874173 -11.25 20.25 C-12.09046875 20.23195313 -12.9309375 20.21390625 -13.796875 20.1953125 C-15.86507395 20.14830798 -17.93268441 20.07656724 -20 20 C-20 19.34 -20 18.68 -20 18 C-18.96359375 17.97421875 -17.9271875 17.9484375 -16.859375 17.921875 C-15.48954199 17.86558049 -14.11975195 17.80823345 -12.75 17.75 C-12.06808594 17.73582031 -11.38617188 17.72164062 -10.68359375 17.70703125 C-7.42895084 17.54903888 -5.2924629 17.19497526 -2.5625 15.375 C-0.51291436 12.25962982 -0.39823464 9.95586609 -0.25 6.25 C-0.19328125 5.07953125 -0.1365625 3.9090625 -0.078125 2.703125 C-0.05234375 1.81109375 -0.0265625 0.9190625 0 0 Z " fill="#C4C4C2" transform="translate(29,11)"/>
<path d="M0 0 C0.99 0 1.98 0 3 0 C2.4833384 3.82329586 1.74085338 5.37334885 -1 8 C-1.71447643 10.10332891 -1.71447643 10.10332891 -2 12 C-2.99 12 -3.98 12 -5 12 C-5.9765625 5.9453125 -5.9765625 5.9453125 -6 4 C-5.34 3.34 -4.68 2.68 -4 2 C-2.68 2 -1.36 2 0 2 C0 1.34 0 0.68 0 0 Z " fill="#898989" transform="translate(23,15)"/>
<path d="M0 0 C2.875 2 2.875 2 5 4 C4.40832031 3.96519531 3.81664062 3.93039062 3.20703125 3.89453125 C-1.7601076 3.72436825 -4.90728689 3.83144791 -9 7 C-9.33 5.68 -9.66 4.36 -10 3 C-6.69711045 -0.04882113 -4.45440141 -0.63634306 0 0 Z " fill="#8A8989" transform="translate(14,12)"/>
<path d="M0 0 C1.65 1.32 3.3 2.64 5 4 C4.67 4.33 4.34 4.66 4 5 C5.65 5.33 7.3 5.66 9 6 C8.34 6.66 7.68 7.32 7 8 C7.33 8.66 7.66 9.32 8 10 C3.125 9.125 3.125 9.125 2 8 C-0.67058851 7.85884839 -3.32432238 7.95752893 -6 8 C-5.67 7.34 -5.34 6.68 -5 6 C-1.9375 5.375 -1.9375 5.375 1 5 C0.67 3.35 0.34 1.7 0 0 Z " fill="#343333" transform="translate(12,5)"/>
<path d="M0 0 C2 3 2 3 2 6 C3.98 6 5.96 6 8 6 C8.28875 5.360625 8.5775 4.72125 8.875 4.0625 C10 2 10 2 12 1 C11.6875 3.375 11.6875 3.375 11 6 C7.47320901 8.35119399 5.97120515 8.21443452 1.8125 8.125 C0.72582031 8.10695313 -0.36085938 8.08890625 -1.48046875 8.0703125 C-2.72763672 8.03550781 -2.72763672 8.03550781 -4 8 C-4 7.67 -4 7.34 -4 7 C-2.35 7 -0.7 7 1 7 C0.67 4.69 0.34 2.38 0 0 Z " fill="#363636" transform="translate(16,21)"/>
<path d="M0 0 C1.65 0.33 3.3 0.66 5 1 C4.45912682 4.78611227 2.88277668 6.55400767 0 9 C-0.66 9 -1.32 9 -2 9 C-2 8.01 -2 7.02 -2 6 C-2.99 6.33 -3.98 6.66 -5 7 C-5 6.34 -5 5.68 -5 5 C-2.69 4.34 -0.38 3.68 2 3 C1.34 2.01 0.68 1.02 0 0 Z " fill="#BBBBBB" transform="translate(17,12)"/>
<path d="M0 0 C1.33332095 2.6666419 0.67102033 4.16680303 0 7 C1.65 6.67 3.3 6.34 5 6 C5 6.66 5 7.32 5 8 C3.56465159 8.2226746 2.12654475 8.42761906 0.6875 8.625 C-0.11300781 8.74101562 -0.91351563 8.85703125 -1.73828125 8.9765625 C-4 9 -4 9 -7 7 C-6.67 6.01 -6.34 5.02 -6 4 C-5.67 4.66 -5.34 5.32 -5 6 C-4.01 6.33 -3.02 6.66 -2 7 C-1.855625 6.030625 -1.71125 5.06125 -1.5625 4.0625 C-1 1 -1 1 0 0 Z " fill="#454444" transform="translate(12,20)"/>
<path d="M0 0 C1.93681161 -0.08107583 3.8745934 -0.13922475 5.8125 -0.1875 C6.89144531 -0.22230469 7.97039063 -0.25710937 9.08203125 -0.29296875 C12 0 12 0 13.88671875 1.51171875 C14.25410156 2.00285156 14.62148438 2.49398438 15 3 C14.67 3.66 14.34 4.32 14 5 C13.1646875 4.2265625 13.1646875 4.2265625 12.3125 3.4375 C10.05914993 1.70523302 10.05914993 1.70523302 7.25 2.3125 C6.5075 2.539375 5.765 2.76625 5 3 C5 2.34 5 1.68 5 1 C3.68 1.33 2.36 1.66 1 2 C0.67 1.34 0.34 0.68 0 0 Z " fill="#DDDDDD" transform="translate(12,4)"/>
<path d="M0 0 C2 2 2 2 2.125 5.125 C2.08375 6.07375 2.0425 7.0225 2 8 C0.68 8 -0.64 8 -2 8 C-1.125 1.125 -1.125 1.125 0 0 Z " fill="#DEDEDE" transform="translate(14,19)"/>
<path d="M0 0 C0.99 0 1.98 0 3 0 C2.64950425 3.24208567 2.43778819 4.61527704 -0.0625 6.8125 C-0.701875 7.204375 -1.34125 7.59625 -2 8 C-2.33 6.35 -2.66 4.7 -3 3 C-2.01 2.67 -1.02 2.34 0 2 C0 1.34 0 0.68 0 0 Z " fill="#908F8E" transform="translate(23,15)"/>
<path d="M0 0 C0.05395478 1.62463842 0.09277195 3.24978541 0.125 4.875 C0.14820313 5.77992187 0.17140625 6.68484375 0.1953125 7.6171875 C0 10 0 10 -2 12 C-2.16802051 10.54182203 -2.33437143 9.0834516 -2.5 7.625 C-2.5928125 6.81289062 -2.685625 6.00078125 -2.78125 5.1640625 C-3 3 -3 3 -3 1 C-1 0 -1 0 0 0 Z " fill="#2D2C2C" transform="translate(29,9)"/>
<path d="M0 0 C2.1385485 2.1385485 2.42655063 3.13275314 3 6 C0.36 5.67 -2.28 5.34 -5 5 C-3.35 3.35 -1.7 1.7 0 0 Z " fill="#A8A8A7" transform="translate(20,6)"/>
<path d="M0 0 C0.33 0.99 0.66 1.98 1 3 C3.00016466 4.20882096 3.00016466 4.20882096 5 5 C3.68 5.99 2.36 6.98 1 8 C0.01 6.68 -0.98 5.36 -2 4 C-1.34 2.68 -0.68 1.36 0 0 Z " fill="#6E6E6D" transform="translate(5,5)"/>
<path d="M0 0 C3.11257569 0 5.10765685 0.17361624 8 1 C7.67 2.32 7.34 3.64 7 5 C6.34 4.01 5.68 3.02 5 2 C3.35 2.33 1.7 2.66 0 3 C0 2.01 0 1.02 0 0 Z " fill="#6C6C6C" transform="translate(15,5)"/>
<path d="M0 0 C2.03144641 0.93446535 4.03533587 1.93224776 6 3 C3.11788698 3.96070434 1.30149956 4.10581883 -1.6875 4.0625 C-2.89986328 4.04896484 -2.89986328 4.04896484 -4.13671875 4.03515625 C-5.05904297 4.01775391 -5.05904297 4.01775391 -6 4 C-4.03617993 2.49440461 -2.21736634 1.10868317 0 0 Z " fill="#737272" transform="translate(13,12)"/>
<path d="M0 0 C0.625 1.875 0.625 1.875 1 4 C-1 6 -1 6 -3.625 6.125 C-4.40875 6.08375 -5.1925 6.0425 -6 6 C-5.01 5.67 -4.02 5.34 -3 5 C-1.8499169 3.03327085 -1.8499169 3.03327085 -1 1 C-0.67 0.67 -0.34 0.34 0 0 Z " fill="#161414" transform="translate(27,22)"/>
<path d="M0 0 C0.66 0.33 1.32 0.66 2 1 C2.33 1.99 2.66 2.98 3 4 C2.34 4.66 1.68 5.32 1 6 C0.34 6 -0.32 6 -1 6 C-1.625 4.125 -1.625 4.125 -2 2 C-1.34 1.34 -0.68 0.68 0 0 Z " fill="#5C5B5A" transform="translate(19,17)"/>
</svg>
